<svg width="19" height="24" viewBox="0 0 19 24" fill="none" xmlns="http://www.w3.org/2000/svg">
<path fill-rule="evenodd" clip-rule="evenodd" d="M8.66432 23.3993L8.66975 23.4048L8.67338 23.4084C8.91122 23.5886 9.20146 23.6862 9.49988 23.6862C9.7983 23.6862 10.0885 23.5886 10.3264 23.4084L10.33 23.4048L10.3354 23.3993L10.3572 23.383C10.474 23.2931 10.5888 23.2006 10.7016 23.1057C12.053 21.9666 13.2946 20.7032 14.4099 19.3321C16.4055 16.8634 18.5624 13.2747 18.5624 9.1875C18.5624 6.78398 17.6076 4.47889 15.908 2.77935C14.2085 1.0798 11.9034 0.125 9.49988 0.125C7.09635 0.125 4.79127 1.0798 3.09172 2.77935C1.39217 4.47889 0.437378 6.78398 0.437378 9.1875C0.437378 13.2747 2.59425 16.8634 4.59163 19.3321C5.70702 20.7031 6.94859 21.9666 8.3 23.1057C8.41292 23.1997 8.52712 23.2921 8.64257 23.383L8.66432 23.3993ZM9.49988 11.9063C9.85691 11.9063 10.2104 11.8359 10.5403 11.6993C10.8702 11.5627 11.1699 11.3624 11.4223 11.1099C11.6748 10.8575 11.875 10.5578 12.0117 10.2279C12.1483 9.89807 12.2186 9.54453 12.2186 9.1875C12.2186 8.83047 12.1483 8.47693 12.0117 8.14708C11.875 7.81723 11.6748 7.51751 11.4223 7.26505C11.1699 7.01259 10.8702 6.81233 10.5403 6.6757C10.2104 6.53907 9.85691 6.46875 9.49988 6.46875C8.77882 6.46875 8.0873 6.75519 7.57743 7.26505C7.06757 7.77492 6.78113 8.46644 6.78113 9.1875C6.78113 9.90856 7.06757 10.6001 7.57743 11.1099C8.0873 11.6198 8.77882 11.9063 9.49988 11.9063Z" fill="#576E28"/>
</svg>
